<?xml version="1.0" encoding="UTF-8"?>
<svg width="1024" height="768" xmlns="http://www.w3.org/2000/svg">
  <!-- Background -->
  <rect width="100%" height="100%" fill="#f5f5f5" />

  <!-- Game Container -->
  <rect x="50" y="50" width="924" height="668" rx="16" fill="white" stroke="#ccc" stroke-width="1" />

  <!-- Game Board -->
  <rect x="272" y="144" width="500" height="400" fill="#ddd" rx="8" />

  <!-- Grid -->
  <g stroke="#ccc">
    <!-- Vertical lines -->
    <g>
      <line x1="322" y1="144" x2="322" y2="544" />
      <line x1="362" y1="144" x2="362" y2="544" />
      <line x1="402" y1="144" x2="402" y2="544" />
      <line x1="442" y1="144" x2="442" y2="544" />
      <line x1="482" y1="144" x2="482" y2="544" />
      <line x1="522" y1="144" x2="522" y2="544" />
      <line x1="562" y1="144" x2="562" y2="544" />
      <line x1="602" y1="144" x2="602" y2="544" />
      <line x1="642" y1="144" x2="642" y2="544" />
      <line x1="682" y1="144" x2="682" y2="544" />
      <line x1="722" y1="144" x2="722" y2="544" />
    </g>
    <!-- Horizontal lines -->
    <g>
      <line x1="272" y1="184" x2="772" y2="184" />
      <line x1="272" y1="224" x2="772" y2="224" />
      <line x1="272" y1="264" x2="772" y2="264" />
      <line x1="272" y1="304" x2="772" y2="304" />
      <line x1="272" y1="344" x2="772" y2="344" />
      <line x1="272" y1="384" x2="772" y2="384" />
      <line x1="272" y1="424" x2="772" y2="424" />
      <line x1="272" y1="464" x2="772" y2="464" />
      <line x1="272" y1="504" x2="772" y2="504" />
    </g>
  </g>

  <!-- Players -->
  <!-- Top -->
  <rect x="412" y="80" width="200" height="40" rx="8" fill="#ffcccb" />
  <circle cx="432" cy="100" r="12" fill="#ccc" />
  <text x="452" y="106" font-size="14" font-family="Arial">Player 1</text>

  <!-- Left -->
  <rect x="100" y="314" width="40" height="120" rx="8" fill="#d0f0c0" />
  <circle cx="120" cy="404" r="12" fill="#ccc" />
  <text x="100" y="368" font-size="12" font-family="Arial" transform="rotate(-90,120,364)">Player 2</text>

  <!-- Right -->
  <rect x="884" y="314" width="40" height="120" rx="8" fill="#fff0a6" />
  <circle cx="904" cy="404" r="12" fill="#ccc" />
  <text x="890" y="368" font-size="12" font-family="Arial" transform="rotate(-90,904,364)">Player 3</text>

  <!-- Bottom -->
  <rect x="362" y="574" width="300" height="80" rx="12" fill="#add8e6" />
  <circle cx="382" cy="614" r="16" fill="#ccc" />
  <text x="404" y="620" font-size="14" font-family="Arial">Player 4</text>
  <text x="404" y="640" font-size="12" font-family="Arial">Cash: $10,000 | Shares: 5</text>

  <!-- Bank Button -->
  <rect x="884" y="60" width="60" height="30" rx="8" fill="gold" />
  <text x="894" y="80" font-size="14" fill="white" font-family="Arial">💰</text>
</svg>
